<?xml version="1.0" encoding="UTF-8"?>
<svg width="75mm" height="35mm" version="1.2" viewBox="0 0 212.6 99.21" xmlns="http://www.w3.org/2000/svg" xmlns:xlink="http://www.w3.org/1999/xlink">
 <defs>
  <symbol id="aa" overflow="visible">
   <path d="m0.8594-7.859v7.859h5.203v-0.875h-4.156v-6.984z"/>
  </symbol>
  <symbol id="e" overflow="visible">
   <path d="m1.688-6.703v-1.156h-0.9219v1.156zm-0.9219 1.016v5.688h0.9219v-5.688z"/>
  </symbol>
  <symbol id="c" overflow="visible">
   <path d="m0.7031-5.688v5.688h0.9375v-3.219c0-0.25 0.03125-0.4844 0.09375-0.7031 0.07031-0.2188 0.1758-0.4062 0.3125-0.5625 0.1445-0.1641 0.3203-0.2891 0.5312-0.375 0.207-0.09375 0.457-0.1406 0.75-0.1406 0.3516 0 0.6328 0.1055 0.8438 0.3125 0.207 0.2109 0.3125 0.4922 0.3125 0.8438v3.844h0.9219v-3.734c0-0.3125-0.03125-0.5938-0.09375-0.8438-0.0625-0.2578-0.1719-0.4766-0.3281-0.6562-0.1484-0.1875-0.3438-0.3281-0.5938-0.4219-0.25-0.1016-0.5625-0.1562-0.9375-0.1562-0.8438 0-1.461 0.3438-1.844 1.031h-0.03125v-0.9062z"/>
  </symbol>
  <symbol id="a" overflow="visible">
   <path d="m4.656-3.391h-3.266c0.007813-0.2188 0.05469-0.4219 0.1406-0.6094 0.08203-0.1953 0.1914-0.3672 0.3281-0.5156 0.1328-0.1445 0.3008-0.2578 0.5-0.3438 0.1953-0.09375 0.4141-0.1406 0.6562-0.1406 0.2266 0 0.4414 0.04688 0.6406 0.1406 0.1953 0.08594 0.3633 0.1992 0.5 0.3438 0.1445 0.1367 0.2578 0.3047 0.3438 0.5 0.08203 0.1992 0.1328 0.4062 0.1562 0.625zm0.9062 1.594h-0.9375c-0.07422 0.3672-0.2422 0.6406-0.5 0.8281-0.25 0.1875-0.5742 0.2812-0.9688 0.2812-0.3125 0-0.5859-0.05078-0.8125-0.1562-0.2188-0.1016-0.4023-0.2383-0.5469-0.4062-0.1484-0.1758-0.2578-0.375-0.3281-0.5938-0.0625-0.2266-0.08984-0.4688-0.07812-0.7188h4.25c0.01953-0.3438-0.01172-0.7031-0.09375-1.078-0.07422-0.3828-0.2148-0.7383-0.4219-1.062-0.1992-0.3203-0.4648-0.5859-0.7969-0.7969-0.3359-0.207-0.7578-0.3125-1.266-0.3125-0.3867 0-0.7461 0.07422-1.078 0.2188-0.3242 0.1484-0.6055 0.3516-0.8438 0.6094-0.2305 0.2617-0.4141 0.5742-0.5469 0.9375-0.1367 0.3555-0.2031 0.75-0.2031 1.188 0.01953 0.4297 0.08594 0.8281 0.2031 1.203 0.1133 0.3672 0.2812 0.6836 0.5 0.9531 0.2266 0.2617 0.5078 0.4648 0.8438 0.6094 0.332 0.1445 0.7266 0.2188 1.188 0.2188 0.6445 0 1.18-0.1602 1.609-0.4844 0.4258-0.3203 0.7031-0.8008 0.8281-1.438z"/>
  </symbol>
  <symbol id="d" overflow="visible">
   <path d="m5.734-0.01562c-0.1562 0.09375-0.375 0.1406-0.6562 0.1406-0.25 0-0.4492-0.07031-0.5938-0.2031-0.1367-0.1328-0.2031-0.3594-0.2031-0.6719-0.2617 0.3125-0.5625 0.5391-0.9062 0.6719-0.3359 0.1328-0.6992 0.2031-1.094 0.2031-0.2617 0-0.5078-0.03125-0.7344-0.09375-0.2305-0.0625-0.4336-0.1484-0.6094-0.2656-0.168-0.125-0.3047-0.2852-0.4062-0.4844-0.09375-0.207-0.1406-0.457-0.1406-0.75 0-0.3203 0.05078-0.582 0.1562-0.7812 0.1133-0.207 0.2578-0.375 0.4375-0.5 0.1875-0.1328 0.3945-0.2344 0.625-0.2969 0.2266-0.0625 0.4688-0.1172 0.7188-0.1719 0.25-0.03906 0.4883-0.07031 0.7188-0.09375 0.2383-0.03125 0.4414-0.07031 0.6094-0.125 0.1758-0.05078 0.3164-0.1172 0.4219-0.2031 0.1016-0.09375 0.1562-0.2266 0.1562-0.4062 0-0.207-0.04297-0.375-0.125-0.5-0.07422-0.125-0.1719-0.2188-0.2969-0.2812-0.1172-0.0625-0.25-0.1016-0.4062-0.125-0.1484-0.03125-0.293-0.04688-0.4375-0.04688-0.3984 0-0.7305 0.07812-1 0.2344-0.2617 0.1484-0.4023 0.4297-0.4219 0.8438h-0.9375c0.01953-0.3438 0.09375-0.6328 0.2188-0.875 0.1328-0.25 0.3125-0.4453 0.5312-0.5938 0.2188-0.1562 0.4688-0.2656 0.75-0.3281 0.2891-0.0625 0.5977-0.09375 0.9219-0.09375 0.25 0 0.5 0.02344 0.75 0.0625 0.2578 0.03125 0.4883 0.1055 0.6875 0.2188 0.207 0.1055 0.375 0.2617 0.5 0.4688 0.125 0.2109 0.1875 0.4805 0.1875 0.8125v2.922c0 0.2188 0.00781 0.3828 0.03125 0.4844 0.03125 0.1055 0.1172 0.1562 0.2656 0.1562 0.08203 0 0.1758-0.01953 0.2812-0.0625zm-1.516-2.922c-0.1172 0.08594-0.2734 0.1484-0.4688 0.1875-0.1875 0.04297-0.3867 0.07812-0.5938 0.1094-0.2109 0.02344-0.418 0.04688-0.625 0.07812-0.2109 0.03125-0.4023 0.08984-0.5781 0.1719-0.168 0.07422-0.3047 0.1797-0.4062 0.3125-0.1055 0.1367-0.1562 0.3203-0.1562 0.5469 0 0.1562 0.03125 0.2891 0.09375 0.3906 0.0625 0.1055 0.1406 0.1953 0.2344 0.2656 0.1016 0.0625 0.2188 0.1094 0.3438 0.1406 0.1328 0.03125 0.2734 0.04688 0.4219 0.04688 0.3125 0 0.5781-0.03906 0.7969-0.125 0.2188-0.09375 0.3945-0.2031 0.5312-0.3281 0.1445-0.125 0.25-0.2578 0.3125-0.4062 0.0625-0.1562 0.09375-0.3008 0.09375-0.4375z"/>
  </symbol>
  <symbol id="b" overflow="visible">
   <path d="m0.6719-5.688v5.688h0.9375v-2.531c0-0.3633 0.03516-0.6875 0.1094-0.9688 0.07031-0.2812 0.1875-0.5195 0.3438-0.7188 0.1641-0.1953 0.3789-0.3477 0.6406-0.4531 0.2695-0.1016 0.5859-0.1562 0.9531-0.1562v-0.9844c-0.5-0.01953-0.918 0.07812-1.25 0.2969-0.3359 0.2188-0.6094 0.5625-0.8281 1.031h-0.03125v-1.203z"/>
  </symbol>
  <symbol id="f" overflow="visible">
   <path d="m6.375-5.484h1.047c-0.05469-0.4141-0.1797-0.7852-0.375-1.109-0.1875-0.3203-0.4297-0.5859-0.7188-0.7969-0.2812-0.2188-0.6055-0.3789-0.9688-0.4844-0.3672-0.1133-0.7578-0.1719-1.172-0.1719-0.6055 0-1.141 0.1094-1.609 0.3281-0.4609 0.2188-0.8438 0.5156-1.156 0.8906s-0.5547 0.8125-0.7188 1.312c-0.1562 0.5-0.2344 1.039-0.2344 1.609 0 0.5742 0.07031 1.109 0.2188 1.609 0.1562 0.5 0.3828 0.9336 0.6875 1.297 0.3008 0.3672 0.6758 0.6523 1.125 0.8594 0.457 0.207 0.9922 0.3125 1.609 0.3125 1 0 1.785-0.2695 2.359-0.8125 0.582-0.5508 0.9258-1.32 1.031-2.312h-1.047c-0.02344 0.3242-0.08984 0.625-0.2031 0.9062-0.1055 0.2734-0.2578 0.5117-0.4531 0.7188-0.1875 0.1992-0.418 0.3555-0.6875 0.4688-0.2734 0.1172-0.5781 0.1719-0.9219 0.1719-0.4688 0-0.875-0.08594-1.219-0.2656-0.3359-0.1758-0.6094-0.4102-0.8281-0.7031-0.2109-0.3008-0.3672-0.6484-0.4688-1.047-0.1055-0.4062-0.1562-0.832-0.1562-1.281 0-0.4062 0.05078-0.7969 0.1562-1.172 0.1016-0.3828 0.2578-0.7266 0.4688-1.031 0.2188-0.3008 0.4922-0.5352 0.8281-0.7031 0.332-0.1758 0.7383-0.2656 1.219-0.2656 0.5391 0 1.008 0.1406 1.406 0.4219 0.4062 0.2734 0.6641 0.6875 0.7812 1.25z"/>
  </symbol>
  <symbol id="t" overflow="visible">
   <path d="m4.562-3.859h0.9688c-0.03125-0.332-0.1211-0.625-0.2656-0.875-0.1367-0.25-0.3125-0.4531-0.5312-0.6094-0.2188-0.1641-0.4688-0.2852-0.75-0.3594-0.2812-0.07031-0.5859-0.1094-0.9062-0.1094-0.4492 0-0.8438 0.07812-1.188 0.2344-0.3359 0.1562-0.6172 0.375-0.8438 0.6562-0.2188 0.2734-0.3867 0.5938-0.5 0.9688-0.1055 0.3672-0.1562 0.7617-0.1562 1.188 0 0.418 0.05469 0.8086 0.1719 1.172 0.1133 0.3555 0.2812 0.6641 0.5 0.9219 0.2266 0.25 0.5078 0.4492 0.8438 0.5938 0.332 0.1328 0.7188 0.2031 1.156 0.2031 0.7188 0 1.285-0.1875 1.703-0.5625 0.4258-0.3828 0.6914-0.9297 0.7969-1.641h-0.9531c-0.0625 0.4375-0.2266 0.7812-0.4844 1.031-0.2617 0.2422-0.6211 0.3594-1.078 0.3594-0.293 0-0.5469-0.05469-0.7656-0.1719-0.2109-0.125-0.3828-0.2812-0.5156-0.4688-0.125-0.1953-0.2188-0.4219-0.2812-0.6719s-0.09375-0.5039-0.09375-0.7656c0-0.2891 0.02344-0.5664 0.07812-0.8281 0.0625-0.2695 0.1602-0.5078 0.2969-0.7188 0.1328-0.207 0.3164-0.375 0.5469-0.5 0.2266-0.125 0.5078-0.1875 0.8438-0.1875 0.3945 0 0.707 0.1016 0.9375 0.2969 0.2383 0.1992 0.3945 0.4805 0.4688 0.8438z"/>
  </symbol>
  <symbol id="s" overflow="visible">
   <path d="m5.406 0v-5.688h-0.9219v3.219c0 0.25-0.03906 0.4844-0.1094 0.7031-0.07422 0.2188-0.1836 0.4141-0.3281 0.5781-0.1367 0.1562-0.3086 0.2812-0.5156 0.375-0.2109 0.08594-0.4531 0.125-0.7344 0.125-0.3672 0-0.6523-0.1016-0.8594-0.3125-0.1992-0.207-0.2969-0.4883-0.2969-0.8438v-3.844h-0.9375v3.734c0 0.3125 0.03125 0.6016 0.09375 0.8594 0.0625 0.25 0.1719 0.4688 0.3281 0.6562 0.1562 0.1797 0.3516 0.3203 0.5938 0.4219 0.25 0.09375 0.5625 0.1406 0.9375 0.1406 0.4141 0 0.7812-0.08594 1.094-0.25 0.3125-0.1641 0.5664-0.4258 0.7656-0.7812h0.01562v0.9062z"/>
  </symbol>
  <symbol id="z" overflow="visible">
   <path d="m0.7656-7.859v7.859h0.9219v-7.859z"/>
  </symbol>
  <symbol id="y" overflow="visible">
   <path d="m2.641-6.969v6.969h1.047v-6.969h2.609v-0.8906h-6.281v0.8906z"/>
  </symbol>
  <symbol id="x" overflow="visible">
   <path d="m1.391-2.797c0-0.2812 0.02344-0.5508 0.07812-0.8125 0.0625-0.2578 0.1562-0.4922 0.2812-0.7031 0.1328-0.207 0.3125-0.375 0.5312-0.5 0.2266-0.125 0.5-0.1875 0.8125-0.1875 0.3203 0 0.5938 0.0625 0.8125 0.1875 0.2266 0.125 0.4141 0.2891 0.5625 0.4844 0.1445 0.1992 0.25 0.4297 0.3125 0.6875 0.07031 0.2617 0.1094 0.5273 0.1094 0.7969 0 0.2734-0.03125 0.5391-0.09375 0.7969-0.0625 0.25-0.168 0.4805-0.3125 0.6875-0.1367 0.1992-0.3125 0.3594-0.5312 0.4844s-0.4922 0.1875-0.8125 0.1875c-0.3047 0-0.5625-0.05469-0.7812-0.1719-0.2188-0.125-0.4023-0.2852-0.5469-0.4844-0.1484-0.1953-0.2578-0.4219-0.3281-0.6719-0.0625-0.25-0.09375-0.5078-0.09375-0.7812zm4.391 2.797v-7.859h-0.9375v2.938h-0.01562c-0.1055-0.1758-0.2344-0.3164-0.3906-0.4219-0.1484-0.1133-0.3047-0.207-0.4688-0.2812-0.168-0.07031-0.3359-0.1172-0.5-0.1406-0.168-0.03125-0.3281-0.04688-0.4844-0.04688-0.4297 0-0.8086 0.07812-1.141 0.2344-0.3242 0.1562-0.5938 0.3711-0.8125 0.6406-0.2109 0.2617-0.3711 0.5742-0.4844 0.9375-0.1055 0.3555-0.1562 0.7344-0.1562 1.141s0.05078 0.793 0.1562 1.156c0.1133 0.3555 0.2812 0.668 0.5 0.9375 0.2188 0.2734 0.4883 0.4922 0.8125 0.6562 0.332 0.1562 0.7188 0.2344 1.156 0.2344 0.3945 0 0.7539-0.07031 1.078-0.2031 0.332-0.1445 0.5781-0.375 0.7344-0.6875h0.01562v0.7656z"/>
  </symbol>
  <symbol id="w" overflow="visible">
   <path d="m0.7031-5.688v5.688h0.9375v-3.547c0-0.1016 0.02344-0.2383 0.07812-0.4062 0.05078-0.1641 0.1406-0.3203 0.2656-0.4688 0.125-0.1562 0.2812-0.2891 0.4688-0.4062 0.1953-0.1133 0.4297-0.1719 0.7031-0.1719 0.207 0 0.3789 0.03125 0.5156 0.09375 0.1445 0.0625 0.2539 0.1523 0.3281 0.2656 0.08203 0.1172 0.1406 0.25 0.1719 0.4062s0.04688 0.3242 0.04688 0.5v3.734h0.9375v-3.547c0-0.4375 0.1289-0.7852 0.3906-1.047 0.2695-0.2695 0.6328-0.4062 1.094-0.4062 0.2266 0 0.4102 0.03906 0.5469 0.1094 0.1445 0.0625 0.2578 0.1523 0.3438 0.2656 0.08203 0.1172 0.1406 0.25 0.1719 0.4062 0.03125 0.1484 0.04688 0.3086 0.04688 0.4844v3.734h0.9219v-4.172c0-0.2891-0.04688-0.5391-0.1406-0.75-0.08594-0.207-0.2109-0.375-0.375-0.5-0.168-0.1328-0.3672-0.2344-0.5938-0.2969-0.2305-0.0625-0.4922-0.09375-0.7812-0.09375-0.375 0-0.7188 0.08594-1.031 0.25-0.3047 0.168-0.5547 0.4062-0.75 0.7188-0.1172-0.3516-0.3203-0.6016-0.6094-0.75-0.2812-0.1445-0.6016-0.2188-0.9531-0.2188-0.793 0-1.402 0.3242-1.828 0.9688h-0.03125v-0.8438z"/>
  </symbol>
  <symbol id="v" overflow="visible">
   <path d="m1.391-2.844c0-0.3438 0.03906-0.6445 0.125-0.9062 0.09375-0.2695 0.2188-0.4922 0.375-0.6719 0.1641-0.1875 0.3594-0.3281 0.5781-0.4219 0.2188-0.1016 0.4453-0.1562 0.6875-0.1562 0.2383 0 0.4688 0.05469 0.6875 0.1562 0.2188 0.09375 0.4062 0.2344 0.5625 0.4219 0.1641 0.1797 0.2891 0.4023 0.375 0.6719 0.09375 0.2617 0.1406 0.5625 0.1406 0.9062s-0.04688 0.6523-0.1406 0.9219c-0.08594 0.2734-0.2109 0.4961-0.375 0.6719-0.1562 0.1797-0.3438 0.3203-0.5625 0.4219-0.2188 0.09375-0.4492 0.1406-0.6875 0.1406-0.2422 0-0.4688-0.04688-0.6875-0.1406-0.2188-0.1016-0.4141-0.2422-0.5781-0.4219-0.1562-0.1758-0.2812-0.3984-0.375-0.6719-0.08594-0.2695-0.125-0.5781-0.125-0.9219zm-1 0c0 0.418 0.05469 0.8086 0.1719 1.172 0.125 0.3555 0.3008 0.668 0.5312 0.9375 0.2383 0.2734 0.5312 0.4844 0.875 0.6406 0.3438 0.1445 0.7383 0.2188 1.188 0.2188 0.457 0 0.8516-0.07422 1.188-0.2188 0.3438-0.1562 0.6289-0.3672 0.8594-0.6406 0.2383-0.2695 0.4141-0.582 0.5312-0.9375 0.125-0.3633 0.1875-0.7539 0.1875-1.172 0-0.4141-0.0625-0.8008-0.1875-1.156-0.1172-0.3633-0.293-0.6797-0.5312-0.9531-0.2305-0.2695-0.5156-0.4766-0.8594-0.625-0.3359-0.1562-0.7305-0.2344-1.188-0.2344-0.4492 0-0.8438 0.07812-1.188 0.2344-0.3438 0.1484-0.6367 0.3555-0.875 0.625-0.2305 0.2734-0.4062 0.5898-0.5312 0.9531-0.1172 0.3555-0.1719 0.7422-0.1719 1.156z"/>
  </symbol>
  <symbol id="i" overflow="visible">
   <path d="m3.266 0 2.078-5.688h-0.9844l-1.547 4.734h-0.01562l-1.594-4.734h-1.047l2.109 5.688z"/>
  </symbol>
  <symbol id="h" overflow="visible">
   <path d="m5.609-0.4844v-5.203h-0.875v0.8125h-0.01562c-0.168-0.3125-0.4023-0.5469-0.7031-0.7031-0.3047-0.1562-0.6328-0.2344-0.9844-0.2344-0.5 0-0.918 0.09375-1.25 0.2812-0.3359 0.1797-0.6055 0.4141-0.8125 0.7031-0.2109 0.293-0.3594 0.6172-0.4531 0.9688-0.08594 0.3555-0.125 0.7031-0.125 1.047 0 0.3867 0.05078 0.7578 0.1562 1.109 0.1133 0.3438 0.2734 0.6484 0.4844 0.9062 0.2188 0.2617 0.4844 0.4688 0.7969 0.625s0.6797 0.2344 1.109 0.2344c0.3633 0 0.707-0.08203 1.031-0.25 0.332-0.1641 0.5781-0.4258 0.7344-0.7812h0.03125v0.375c0 0.3125-0.03125 0.5977-0.09375 0.8594-0.0625 0.2695-0.168 0.5-0.3125 0.6875-0.1367 0.1875-0.3125 0.332-0.5312 0.4375-0.2109 0.1016-0.4648 0.1562-0.7656 0.1562-0.1562 0-0.3242-0.01562-0.5-0.04688-0.168-0.03125-0.3242-0.08594-0.4688-0.1562-0.1367-0.07422-0.2578-0.1719-0.3594-0.2969-0.09375-0.1172-0.1484-0.2578-0.1562-0.4219h-0.9375c0.01953 0.3125 0.1016 0.5703 0.25 0.7812 0.1445 0.2188 0.3281 0.3906 0.5469 0.5156 0.2266 0.1328 0.4766 0.2266 0.75 0.2812 0.2812 0.0625 0.5508 0.09375 0.8125 0.09375 0.9062 0 1.57-0.2344 2-0.7031 0.4258-0.4609 0.6406-1.152 0.6406-2.078zm-2.625-0.2812c-0.3047 0-0.5586-0.0625-0.7656-0.1875-0.2109-0.125-0.375-0.2891-0.5-0.5-0.1172-0.207-0.1992-0.4414-0.25-0.7031-0.05469-0.2578-0.07812-0.5156-0.07812-0.7656 0-0.2695 0.03125-0.5312 0.09375-0.7812s0.1602-0.4688 0.2969-0.6562c0.1328-0.1953 0.3047-0.3516 0.5156-0.4688 0.2188-0.1133 0.4727-0.1719 0.7656-0.1719 0.3008 0 0.5508 0.0625 0.75 0.1875 0.207 0.1172 0.375 0.2734 0.5 0.4688 0.1328 0.1875 0.2266 0.4062 0.2812 0.6562 0.0625 0.2422 0.09375 0.4844 0.09375 0.7344 0 0.2617-0.03125 0.5273-0.09375 0.7969-0.0625 0.2617-0.1641 0.4961-0.2969 0.7031-0.125 0.2109-0.2969 0.375-0.5156 0.5s-0.4844 0.1875-0.7969 0.1875z"/>
  </symbol>
  <symbol id="g" overflow="visible">
   <path d="m2-5.688v-1.703h-0.9375v1.703h-0.9688v0.8281h0.9688v3.609c0 0.2734 0.02344 0.4922 0.07812 0.6562 0.05078 0.1562 0.1289 0.2812 0.2344 0.375 0.1133 0.08594 0.2539 0.1406 0.4219 0.1719 0.1758 0.03125 0.3828 0.04688 0.625 0.04688h0.7188v-0.8281h-0.4375c-0.1484 0-0.2656-0.003906-0.3594-0.01562-0.08594-0.007813-0.1523-0.03125-0.2031-0.0625-0.05469-0.03906-0.08984-0.09375-0.1094-0.1562-0.02344-0.07031-0.03125-0.1602-0.03125-0.2656v-3.531h1.141v-0.8281z"/>
  </symbol>
  <symbol id="u" overflow="visible">
   <path d="m1.906-0.875v-6.094h1.75c0.4883 0 0.8945 0.07031 1.219 0.2031 0.332 0.1367 0.6016 0.3359 0.8125 0.5938 0.207 0.2617 0.3594 0.5781 0.4531 0.9531 0.09375 0.3672 0.1406 0.7812 0.1406 1.25 0 0.4805-0.05469 0.8906-0.1562 1.234-0.09375 0.3438-0.2188 0.6328-0.375 0.8594-0.1562 0.2188-0.3359 0.3984-0.5312 0.5312-0.1875 0.1367-0.3828 0.2422-0.5781 0.3125-0.1992 0.0625-0.3867 0.1055-0.5625 0.125-0.1797 0.02344-0.3242 0.03125-0.4375 0.03125zm-1.047-6.984v7.859h2.688c0.6562 0 1.223-0.08594 1.703-0.2656 0.4766-0.1875 0.8672-0.4531 1.172-0.7969 0.3125-0.3516 0.5391-0.7852 0.6875-1.297 0.1445-0.5078 0.2188-1.094 0.2188-1.75 0-1.258-0.3281-2.195-0.9844-2.812-0.6484-0.625-1.578-0.9375-2.797-0.9375z"/>
  </symbol>
  <symbol id="r" overflow="visible">
   <path d="m-0.04688 0 3.031-7.859h1.156l3.047 7.859zm1.406-0.875h4.344l-2.125-6.047h-0.03125z"/>
  </symbol>
  <symbol id="q" overflow="visible"></symbol>
  <symbol id="p" overflow="visible">
   <path d="m5.406-5.562h0.9844c-0.01172-0.4258-0.09375-0.7969-0.25-1.109-0.1484-0.3125-0.3516-0.5664-0.6094-0.7656-0.2617-0.207-0.5625-0.3594-0.9062-0.4531-0.3438-0.1016-0.7188-0.1562-1.125-0.1562-0.3672 0-0.7188 0.04688-1.062 0.1406-0.3359 0.09375-0.6367 0.2344-0.9062 0.4219-0.2617 0.1875-0.4766 0.4297-0.6406 0.7188-0.1562 0.2812-0.2344 0.625-0.2344 1.031 0 0.3555 0.06641 0.6523 0.2031 0.8906 0.1445 0.2422 0.3359 0.4375 0.5781 0.5938 0.2383 0.1484 0.5039 0.2656 0.7969 0.3594 0.3008 0.08594 0.6094 0.1641 0.9219 0.2344 0.3125 0.07422 0.6172 0.1406 0.9219 0.2031 0.3008 0.0625 0.5703 0.1523 0.8125 0.2656 0.2383 0.1055 0.4258 0.2422 0.5625 0.4062 0.1445 0.168 0.2188 0.3867 0.2188 0.6562 0 0.293-0.05859 0.5312-0.1719 0.7188-0.1172 0.1797-0.2734 0.3203-0.4688 0.4219-0.1875 0.1055-0.4023 0.1836-0.6406 0.2344-0.2422 0.04297-0.4766 0.0625-0.7031 0.0625-0.293 0-0.5781-0.03516-0.8594-0.1094-0.2812-0.07031-0.5273-0.1875-0.7344-0.3438-0.2109-0.1562-0.3828-0.3516-0.5156-0.5938-0.125-0.2383-0.1875-0.5195-0.1875-0.8438h-0.9844c0 0.4688 0.08203 0.8828 0.25 1.234 0.1758 0.3438 0.4102 0.6328 0.7031 0.8594 0.3008 0.2188 0.6445 0.3828 1.031 0.4844 0.3945 0.1133 0.8164 0.1719 1.266 0.1719 0.3516 0 0.7109-0.04297 1.078-0.125 0.3633-0.08203 0.6914-0.2188 0.9844-0.4062 0.2891-0.1875 0.5312-0.4258 0.7188-0.7188 0.1875-0.3008 0.2812-0.6602 0.2812-1.078 0-0.3828-0.07422-0.707-0.2188-0.9688-0.1367-0.2578-0.3242-0.4727-0.5625-0.6406-0.2422-0.1641-0.5117-0.2969-0.8125-0.3906-0.3047-0.1016-0.6094-0.1914-0.9219-0.2656-0.3125-0.07031-0.6211-0.1406-0.9219-0.2031-0.293-0.0625-0.5586-0.1406-0.7969-0.2344-0.2422-0.09375-0.4336-0.2109-0.5781-0.3594-0.1484-0.1562-0.2188-0.3516-0.2188-0.5938 0-0.2578 0.04688-0.4727 0.1406-0.6406 0.1016-0.1758 0.2383-0.3164 0.4062-0.4219 0.1641-0.1016 0.3516-0.1758 0.5625-0.2188 0.2188-0.03906 0.4375-0.0625 0.6562-0.0625 0.5391 0 0.9844 0.125 1.328 0.375 0.3516 0.25 0.5625 0.6562 0.625 1.219z"/>
  </symbol>
  <symbol id="o" overflow="visible">
   <path d="m0.7344-5.688v7.859h0.9375v-2.938h0.01562c0.1016 0.1797 0.2266 0.3242 0.375 0.4375 0.1562 0.1055 0.3164 0.1953 0.4844 0.2656 0.1758 0.0625 0.3477 0.1094 0.5156 0.1406 0.1758 0.03125 0.332 0.04688 0.4688 0.04688 0.4375 0 0.8164-0.07812 1.141-0.2344 0.3203-0.1562 0.5938-0.3633 0.8125-0.625 0.2188-0.2695 0.3789-0.582 0.4844-0.9375 0.1016-0.3633 0.1562-0.75 0.1562-1.156s-0.05859-0.7852-0.1719-1.141c-0.1055-0.3633-0.2656-0.6797-0.4844-0.9531-0.2188-0.2695-0.4922-0.4844-0.8125-0.6406-0.3242-0.1641-0.7031-0.25-1.141-0.25-0.3984 0-0.7617 0.07422-1.094 0.2188-0.3359 0.1367-0.5781 0.3594-0.7344 0.6719h-0.01562v-0.7656zm4.406 2.797c0 0.2812-0.03125 0.5547-0.09375 0.8125-0.05469 0.2617-0.1484 0.4961-0.2812 0.7031-0.1367 0.2109-0.3125 0.375-0.5312 0.5-0.2109 0.125-0.4766 0.1875-0.7969 0.1875-0.3242 0-0.6016-0.0625-0.8281-0.1875-0.2305-0.125-0.418-0.2852-0.5625-0.4844-0.1367-0.1953-0.2422-0.4258-0.3125-0.6875-0.0625-0.2578-0.09375-0.5234-0.09375-0.7969 0-0.2695 0.03125-0.5312 0.09375-0.7812 0.0625-0.2578 0.1602-0.4883 0.2969-0.6875 0.1445-0.207 0.3281-0.375 0.5469-0.5s0.4844-0.1875 0.7969-0.1875c0.3008 0 0.5625 0.0625 0.7812 0.1875 0.2266 0.1172 0.4102 0.2734 0.5469 0.4688 0.1445 0.1992 0.2539 0.4297 0.3281 0.6875 0.07031 0.25 0.1094 0.5078 0.1094 0.7656z"/>
  </symbol>
  <symbol id="n" overflow="visible">
   <path d="m5.734-0.01562c-0.1562 0.09375-0.375 0.1406-0.6562 0.1406-0.25 0-0.4492-0.07031-0.5938-0.2031-0.1367-0.1328-0.2031-0.3594-0.2031-0.6719-0.2617 0.3125-0.5625 0.5391-0.9062 0.6719-0.3359 0.1328-0.6992 0.2031-1.094 0.2031-0.2617 0-0.5078-0.03125-0.7344-0.09375-0.2305-0.0625-0.4336-0.1484-0.6094-0.2656-0.168-0.125-0.3047-0.2852-0.4062-0.4844-0.09375-0.207-0.1406-0.457-0.1406-0.75 0-0.3203 0.05078-0.582 0.1562-0.7812 0.1133-0.207 0.2578-0.375 0.4375-0.5 0.1875-0.1328 0.3945-0.2344 0.625-0.2969 0.2266-0.0625 0.4688-0.1172 0.7188-0.1719 0.25-0.03906 0.4883-0.07031 0.7188-0.09375 0.2383-0.03125 0.4414-0.07031 0.6094-0.125 0.1758-0.05078 0.3164-0.1172 0.4219-0.2031 0.1016-0.09375 0.1562-0.2266 0.1562-0.4062 0-0.207-0.04297-0.375-0.125-0.5-0.07422-0.125-0.1719-0.2188-0.2969-0.2812-0.1172-0.0625-0.25-0.1016-0.4062-0.125-0.1484-0.03125-0.293-0.04688-0.4375-0.04688-0.3984 0-0.7305 0.07812-1 0.2344-0.2617 0.1484-0.4023 0.4297-0.4219 0.8438h-0.9375c0.01953-0.3438 0.09375-0.6328 0.2188-0.875 0.1328-0.25 0.3125-0.4453 0.5312-0.5938 0.2188-0.1562 0.4688-0.2656 0.75-0.3281 0.2891-0.0625 0.5977-0.09375 0.9219-0.09375 0.25 0 0.5 0.02344 0.75 0.0625 0.2578 0.03125 0.4883 0.1055 0.6875 0.2188 0.207 0.1055 0.375 0.2617 0.5 0.4688 0.125 0.2109 0.1875 0.4805 0.1875 0.8125v2.922c0 0.2188 0.00781 0.3828 0.03125 0.4844 0.03125 0.1055 0.1172 0.1562 0.2656 0.1562 0.08203 0 0.1758-0.01953 0.2812-0.0625zm-1.516-2.922c-0.1172 0.08594-0.2734 0.1484-0.4688 0.1875-0.1875 0.04297-0.3867 0.07812-0.5938 0.1094-0.2109 0.02344-0.418 0.04688-0.625 0.07812-0.2109 0.03125-0.4023 0.08984-0.5781 0.1719-0.168 0.07422-0.3047 0.1797-0.4062 0.3125-0.1055 0.1367-0.1562 0.3203-0.1562 0.5469 0 0.1562 0.03125 0.2891 0.09375 0.3906 0.0625 0.1055 0.1406 0.1953 0.2344 0.2656 0.1016 0.0625 0.2188 0.1094 0.3438 0.1406 0.1328 0.03125 0.2734 0.04688 0.4219 0.04688 0.3125 0 0.5781-0.03906 0.7969-0.125 0.2188-0.09375 0.3945-0.2031 0.5312-0.3281 0.1445-0.125 0.25-0.2578 0.3125-0.4062 0.0625-0.1562 0.09375-0.3008 0.09375-0.4375z"/>
  </symbol>
  <symbol id="m" overflow="visible">
   <path d="m4.562-3.859h0.9688c-0.03125-0.332-0.1211-0.625-0.2656-0.875-0.1367-0.25-0.3125-0.4531-0.5312-0.6094-0.2188-0.1641-0.4688-0.2852-0.75-0.3594-0.2812-0.07031-0.5859-0.1094-0.9062-0.1094-0.4492 0-0.8438 0.07812-1.188 0.2344-0.3359 0.1562-0.6172 0.375-0.8438 0.6562-0.2188 0.2734-0.3867 0.5938-0.5 0.9688-0.1055 0.3672-0.1562 0.7617-0.1562 1.188 0 0.418 0.05469 0.8086 0.1719 1.172 0.1133 0.3555 0.2812 0.6641 0.5 0.9219 0.2266 0.25 0.5078 0.4492 0.8438 0.5938 0.332 0.1328 0.7188 0.2031 1.156 0.2031 0.7188 0 1.285-0.1875 1.703-0.5625 0.4258-0.3828 0.6914-0.9297 0.7969-1.641h-0.9531c-0.0625 0.4375-0.2266 0.7812-0.4844 1.031-0.2617 0.2422-0.6211 0.3594-1.078 0.3594-0.293 0-0.5469-0.05469-0.7656-0.1719-0.2109-0.125-0.3828-0.2812-0.5156-0.4688-0.125-0.1953-0.2188-0.4219-0.2812-0.6719s-0.09375-0.5039-0.09375-0.7656c0-0.2891 0.02344-0.5664 0.07812-0.8281 0.0625-0.2695 0.1602-0.5078 0.2969-0.7188 0.1328-0.207 0.3164-0.375 0.5469-0.5 0.2266-0.125 0.5078-0.1875 0.8438-0.1875 0.3945 0 0.707 0.1016 0.9375 0.2969 0.2383 0.1992 0.3945 0.4805 0.4688 0.8438z"/>
  </symbol>
  <symbol id="l" overflow="visible">
   <path d="m1.688-6.703v-1.156h-0.9219v1.156zm-0.9219 1.016v5.688h0.9219v-5.688z"/>
  </symbol>
  <symbol id="k" overflow="visible">
   <path d="m0.7031-5.688v5.688h0.9375v-3.219c0-0.25 0.03125-0.4844 0.09375-0.7031 0.07031-0.2188 0.1758-0.4062 0.3125-0.5625 0.1445-0.1641 0.3203-0.2891 0.5312-0.375 0.207-0.09375 0.457-0.1406 0.75-0.1406 0.3516 0 0.6328 0.1055 0.8438 0.3125 0.207 0.2109 0.3125 0.4922 0.3125 0.8438v3.844h0.9219v-3.734c0-0.3125-0.03125-0.5938-0.09375-0.8438-0.0625-0.2578-0.1719-0.4766-0.3281-0.6562-0.1484-0.1875-0.3438-0.3281-0.5938-0.4219-0.25-0.1016-0.5625-0.1562-0.9375-0.1562-0.8438 0-1.461 0.3438-1.844 1.031h-0.03125v-0.9062z"/>
  </symbol>
  <symbol id="j" overflow="visible">
   <path d="m5.609-0.4844v-5.203h-0.875v0.8125h-0.01562c-0.168-0.3125-0.4023-0.5469-0.7031-0.7031-0.3047-0.1562-0.6328-0.2344-0.9844-0.2344-0.5 0-0.918 0.09375-1.25 0.2812-0.3359 0.1797-0.6055 0.4141-0.8125 0.7031-0.2109 0.293-0.3594 0.6172-0.4531 0.9688-0.08594 0.3555-0.125 0.7031-0.125 1.047 0 0.3867 0.05078 0.7578 0.1562 1.109 0.1133 0.3438 0.2734 0.6484 0.4844 0.9062 0.2188 0.2617 0.4844 0.4688 0.7969 0.625s0.6797 0.2344 1.109 0.2344c0.3633 0 0.707-0.08203 1.031-0.25 0.332-0.1641 0.5781-0.4258 0.7344-0.7812h0.03125v0.375c0 0.3125-0.03125 0.5977-0.09375 0.8594-0.0625 0.2695-0.168 0.5-0.3125 0.6875-0.1367 0.1875-0.3125 0.332-0.5312 0.4375-0.2109 0.1016-0.4648 0.1562-0.7656 0.1562-0.1562 0-0.3242-0.01562-0.5-0.04688-0.168-0.03125-0.3242-0.08594-0.4688-0.1562-0.1367-0.07422-0.2578-0.1719-0.3594-0.2969-0.09375-0.1172-0.1484-0.2578-0.1562-0.4219h-0.9375c0.01953 0.3125 0.1016 0.5703 0.25 0.7812 0.1445 0.2188 0.3281 0.3906 0.5469 0.5156 0.2266 0.1328 0.4766 0.2266 0.75 0.2812 0.2812 0.0625 0.5508 0.09375 0.8125 0.09375 0.9062 0 1.57-0.2344 2-0.7031 0.4258-0.4609 0.6406-1.152 0.6406-2.078zm-2.625-0.2812c-0.3047 0-0.5586-0.0625-0.7656-0.1875-0.2109-0.125-0.375-0.2891-0.5-0.5-0.1172-0.207-0.1992-0.4414-0.25-0.7031-0.05469-0.2578-0.07812-0.5156-0.07812-0.7656 0-0.2695 0.03125-0.5312 0.09375-0.7812s0.1602-0.4688 0.2969-0.6562c0.1328-0.1953 0.3047-0.3516 0.5156-0.4688 0.2188-0.1133 0.4727-0.1719 0.7656-0.1719 0.3008 0 0.5508 0.0625 0.75 0.1875 0.207 0.1172 0.375 0.2734 0.5 0.4688 0.1328 0.1875 0.2266 0.4062 0.2812 0.6562 0.0625 0.2422 0.09375 0.4844 0.09375 0.7344 0 0.2617-0.03125 0.5273-0.09375 0.7969-0.0625 0.2617-0.1641 0.4961-0.2969 0.7031-0.125 0.2109-0.2969 0.375-0.5156 0.5s-0.4844 0.1875-0.7969 0.1875z"/>
  </symbol>
  <clipPath id="ab">
   <path d="m0 12h91v87.21h-91z"/>
  </clipPath>
 </defs>
 <path transform="matrix(1 0 0 -1 12.96 24.14)" d="m-0.001162 0.001181h53.48" fill="none" stroke="#211e1e" stroke-miterlimit="10" stroke-width="2"/>
 <g fill="#211e1e">
  <path d="m11.96 30.64h2v-13h-2z"/>
  <path d="m67.44 30.64h-2v-13h2z"/>
  <use x="24.623501" y="14.6667" width="100%" height="100%" xlink:href="#aa"/>
  <use x="30.7395" y="14.6667" width="100%" height="100%" xlink:href="#e"/>
  <use x="33.181499" y="14.6667" width="100%" height="100%" xlink:href="#c"/>
  <use x="39.297501" y="14.6667" width="100%" height="100%" xlink:href="#a"/>
  <use x="45.204498" y="14.6667" width="100%" height="100%" xlink:href="#d"/>
  <use x="51.1115" y="14.6667" width="100%" height="100%" xlink:href="#b"/>
  <use x="18.8375" y="68.775703" width="100%" height="100%" xlink:href="#f"/>
  <use x="26.779499" y="68.775703" width="100%" height="100%" xlink:href="#e"/>
  <use x="29.2215" y="68.775703" width="100%" height="100%" xlink:href="#b"/>
  <use x="32.686501" y="68.775703" width="100%" height="100%" xlink:href="#t"/>
  <use x="38.593498" y="68.775703" width="100%" height="100%" xlink:href="#s"/>
  <use x="44.709499" y="68.775703" width="100%" height="100%" xlink:href="#z"/>
  <use x="47.151501" y="68.775703" width="100%" height="100%" xlink:href="#d"/>
  <use x="53.058498" y="68.775703" width="100%" height="100%" xlink:href="#b"/>
 </g>
 <g clip-path="url(#ab)">
  <path transform="matrix(1 0 0 -1 62.7 65.71)" d="m9.25e-4 1.625e-4c0-13.76-11.16-24.92-24.92-24.92s-24.92 11.16-24.92 24.92 11.16 24.92 24.92 24.92 24.92-11.16 24.92-24.92z" fill="none" stroke="#211e1e" stroke-miterlimit="10" stroke-width="2"/>
 </g>
 <g fill="#211e1e">
  <use x="96.975601" y="9.3542004" width="100%" height="100%" xlink:href="#y"/>
 </g>
 <g fill="#211e1e">
  <use x="102.0686" y="9.3542004" width="100%" height="100%" xlink:href="#d"/>
  <use x="107.9756" y="9.3542004" width="100%" height="100%" xlink:href="#c"/>
  <use x="114.0916" y="9.3542004" width="100%" height="100%" xlink:href="#x"/>
  <use x="120.6146" y="9.3542004" width="100%" height="100%" xlink:href="#a"/>
  <use x="126.5216" y="9.3542004" width="100%" height="100%" xlink:href="#w"/>
 </g>
 <path transform="matrix(1 0 0 -1 99.34 28.39)" d="m0.00125-9.312e-4h34.19" fill="none" stroke="#a37f45" stroke-miterlimit="10" stroke-width="2"/>
 <path transform="matrix(1 0 0 -1 122.4 27.79)" d="m-8.125e-5 0.001631v12.12h5.258" fill="none" stroke="#a37f45" stroke-miterlimit="10" stroke-width="2"/>
 <path d="m133.2 15.67-7.762 3.168 1.84-3.168-1.84-3.172z" fill="#a37f45"/>
 <path transform="matrix(1 0 0 -1 106.8 27.79)" d="m-8.938e-4 0.001631v12.12h5.258" fill="none" stroke="#a37f45" stroke-miterlimit="10" stroke-width="2"/>
 <g>
  <path d="m117.6 15.67-7.762 3.168 1.84-3.168-1.84-3.172z" fill="#a37f45"/>
  <g fill="#211e1e">
   <use x="87.972198" y="43.294601" width="100%" height="100%" xlink:href="#f"/>
   <use x="95.9142" y="43.294601" width="100%" height="100%" xlink:href="#v"/>
   <use x="102.2282" y="43.294601" width="100%" height="100%" xlink:href="#c"/>
   <use x="108.3442" y="43.294601" width="100%" height="100%" xlink:href="#i"/>
   <use x="113.8442" y="43.294601" width="100%" height="100%" xlink:href="#a"/>
   <use x="119.7512" y="43.294601" width="100%" height="100%" xlink:href="#b"/>
  </g>
  <g fill="#211e1e">
   <use x="123.1062" y="43.294601" width="100%" height="100%" xlink:href="#h"/>
   <use x="129.4202" y="43.294601" width="100%" height="100%" xlink:href="#a"/>
   <use x="135.32719" y="43.294601" width="100%" height="100%" xlink:href="#c"/>
   <use x="141.44321" y="43.294601" width="100%" height="100%" xlink:href="#g"/>
  </g>
 </g>
 <path transform="matrix(1 0 0 -1 99.34 61.77)" d="m0.00125-1.375e-4h34.19" fill="none" stroke="#17b5cc" stroke-miterlimit="10" stroke-width="2"/>
 <path transform="matrix(1 0 0 -1 130.1 61.17)" d="m1.875e-5 -0.001481v12.13h-5.258" fill="none" stroke="#17b5cc" stroke-miterlimit="10" stroke-width="2"/>
 <path d="m119.4 49.05 7.762-3.172-1.84 3.172 1.84 3.168z" fill="#17b5cc"/>
 <path transform="matrix(1 0 0 -1 103.8 61.17)" d="m0.001288-0.001481v12.13h5.254" fill="none" stroke="#17b5cc" stroke-miterlimit="10" stroke-width="2"/>
 <g>
  <path d="m114.6 49.05-7.758 3.172 1.84-3.172-1.84-3.172z" fill="#17b5cc"/>
  <g fill="#211e1e">
   <use x="93.064903" y="77.981598" width="100%" height="100%" xlink:href="#u"/>
   <use x="100.8089" y="77.981598" width="100%" height="100%" xlink:href="#e"/>
   <use x="103.2509" y="77.981598" width="100%" height="100%" xlink:href="#i"/>
   <use x="108.7509" y="77.981598" width="100%" height="100%" xlink:href="#a"/>
   <use x="114.6579" y="77.981598" width="100%" height="100%" xlink:href="#b"/>
  </g>
  <g fill="#211e1e">
   <use x="118.0129" y="77.981598" width="100%" height="100%" xlink:href="#h"/>
   <use x="124.3269" y="77.981598" width="100%" height="100%" xlink:href="#a"/>
   <use x="130.2339" y="77.981598" width="100%" height="100%" xlink:href="#c"/>
   <use x="136.3499" y="77.981598" width="100%" height="100%" xlink:href="#g"/>
  </g>
 </g>
 <path transform="matrix(1 0 0 -1 99.34 96.15)" d="m0.00125 5.562e-4h34.19" fill="none" stroke="#ab3f3f" stroke-miterlimit="10" stroke-width="2"/>
 <path transform="matrix(1 0 0 -1 118.9 95.55)" d="m-8.938e-4 -7.875e-4v12.13h5.258" fill="none" stroke="#ab3f3f" stroke-miterlimit="10" stroke-width="2"/>
 <path d="m129.6 83.43-7.762 3.172 1.844-3.172-1.844-3.168z" fill="#ab3f3f"/>
 <path transform="matrix(1 0 0 -1 114.1 95.55)" d="m1.875e-5 -7.875e-4v12.13h-5.258" fill="none" stroke="#ab3f3f" stroke-miterlimit="10" stroke-width="2"/>
 <path d="m103.3 83.43 7.762-3.172-1.84 3.172 1.84 3.172z" fill="#ab3f3f"/>
 <g fill="#211e1e">
  <use x="155.606" y="9.4752998" width="100%" height="100%" xlink:href="#r"/>
  <use x="162.73399" y="9.4752998" width="100%" height="100%" xlink:href="#q"/>
  <use x="165.79201" y="9.4752998" width="100%" height="100%" xlink:href="#p"/>
  <use x="172.92" y="9.4752998" width="100%" height="100%" xlink:href="#o"/>
  <use x="179.44299" y="9.4752998" width="100%" height="100%" xlink:href="#n"/>
  <use x="185.35001" y="9.4752998" width="100%" height="100%" xlink:href="#m"/>
  <use x="191.257" y="9.4752998" width="100%" height="100%" xlink:href="#l"/>
  <use x="193.69901" y="9.4752998" width="100%" height="100%" xlink:href="#k"/>
  <use x="199.815" y="9.4752998" width="100%" height="100%" xlink:href="#j"/>
 </g>
 <path transform="matrix(1 0 0 -1 164.7 28.09)" d="m-0.001862 3.5e-4h34.2" fill="none" stroke="#ab3f3f" stroke-miterlimit="10" stroke-width="2"/>
 <path transform="matrix(1 0 0 -1 184.3 27.5)" d="m-1e-4 -9.938e-4v12.13h5.258" fill="none" stroke="#ab3f3f" stroke-miterlimit="10" stroke-width="2"/>
 <path d="m195 15.37-7.762 3.172 1.84-3.172-1.84-3.172z" fill="#ab3f3f"/>
 <path transform="matrix(1 0 0 -1 179.4 27.5)" d="m9.125e-4 -9.938e-4v12.13h-5.258" fill="none" stroke="#ab3f3f" stroke-miterlimit="10" stroke-width="2"/>
 <path d="m168.7 15.37 7.762-3.172-1.844 3.172 1.844 3.172z" fill="#ab3f3f"/>
 <path transform="matrix(1 0 0 -1 164.7 62.54)" d="m-0.001862 5.312e-4h34.2" fill="none" stroke="#ab6363" stroke-miterlimit="10" stroke-width="2"/>
 <path transform="matrix(1 0 0 -1 186.3 61.94)" d="m-1e-4 -8.125e-4v12.13h5.258" fill="none" stroke="#ab6363" stroke-miterlimit="10" stroke-width="2"/>
 <path d="m197 49.82-7.762 3.172 1.84-3.172-1.84-3.168z" fill="#ab6363"/>
 <path transform="matrix(1 0 0 -1 177.4 61.94)" d="m9.125e-4 -8.125e-4v12.13h-5.258" fill="none" stroke="#ab6363" stroke-miterlimit="10" stroke-width="2"/>
 <path d="m166.7 49.82 7.762-3.172-1.844 3.172 1.844 3.172z" fill="#ab6363"/>
 <path transform="matrix(1 0 0 -1 164.7 96.99)" d="m-0.001862 7.125e-4h34.2" fill="none" stroke="#ab8787" stroke-miterlimit="10" stroke-width="2"/>
 <path transform="matrix(1 0 0 -1 189.3 96.39)" d="m-1e-4 -6.312e-4v12.13h5.258" fill="none" stroke="#ab8787" stroke-miterlimit="10" stroke-width="2"/>
 <path d="m200 84.27-7.762 3.172 1.84-3.172-1.84-3.168z" fill="#ab8787"/>
 <path transform="matrix(1 0 0 -1 174.4 96.39)" d="m9.125e-4 -6.312e-4v12.13h-5.258" fill="none" stroke="#ab8787" stroke-miterlimit="10" stroke-width="2"/>
 <path d="m163.7 84.27 7.762-3.172-1.844 3.172 1.844 3.172z" fill="#ab8787"/>
</svg>
